<?xml version="1.0" encoding="utf-8"?>
<!-- Generator: Adobe Illustrator 25.4.1, SVG Export Plug-In . SVG Version: 6.00 Build 0)  -->
<svg version="1.1" id="Capa_1" xmlns="http://www.w3.org/2000/svg" xmlns:xlink="http://www.w3.org/1999/xlink" x="0px" y="0px"
	 viewBox="0 0 20.6 20.6" style="enable-background:new 0 0 20.6 20.6;" xml:space="preserve">
<style type="text/css">
	.st0{fill:#FF7E00;enable-background:new    ;}
</style>
<path class="st0" d="M20.4,19.4l-6.1-6.1c2.9-3.4,2.4-8.5-1-11.4s-8.5-2.4-11.4,1s-2.4,8.5,1,11.4c1.5,1.2,3.3,1.9,5.2,1.9
	c1.9,0,3.8-0.7,5.2-1.9l6.1,6.1c0.1,0.1,0.3,0.2,0.5,0.2c0.2,0,0.4-0.1,0.5-0.2C20.6,20.1,20.7,19.7,20.4,19.4
	C20.4,19.4,20.4,19.4,20.4,19.4z M3.4,12.9C0.7,10.2,0.8,6,3.4,3.4s6.9-2.6,9.5,0.1s2.6,6.9-0.1,9.5c-1.3,1.2-3,1.9-4.7,1.9
	C6.3,14.9,4.6,14.1,3.4,12.9L3.4,12.9z"/>
</svg>
