<svg xmlns="http://www.w3.org/2000/svg" viewBox="0 0 26.88 25.4"><defs><style>.a{fill:#fff;}</style></defs><path class="a" d="M.71,1.42A.67.67,0,0,1,0,.71.67.67,0,0,1,.71,0h3A2.46,2.46,0,0,1,6.16,2.12L6.3,3H26.18a.63.63,0,0,1,.63.92L22.92,14.72a2.5,2.5,0,0,1-2.33,1.69h-12l.07.64A1.13,1.13,0,0,0,9.76,18H22a.71.71,0,0,1,0,1.42H9.76a2.45,2.45,0,0,1-2.47-2.13L4.74,2.33a1,1,0,0,0-1.06-.91Zm5.8,3L8.28,15H20.59a1.06,1.06,0,0,0,1-.71l3.61-9.9Z"/><path class="a" d="M11.25,20.45a2.46,2.46,0,0,1,2.48,2.47,2.48,2.48,0,1,1-5,0A2.46,2.46,0,0,1,11.25,20.45Zm0,1.41a1,1,0,0,0-1.06,1.06,1.06,1.06,0,1,0,2.12,0A1,1,0,0,0,11.25,21.86Z"/><path class="a" d="M19.67,20.45a2.46,2.46,0,0,1,2.48,2.47,2.52,2.52,0,0,1-5,0A2.47,2.47,0,0,1,19.67,20.45Zm0,1.41a1.06,1.06,0,0,0-1.13,1.06A1.1,1.1,0,0,0,19.67,24a1.08,1.08,0,0,0,1.06-1.06A1,1,0,0,0,19.67,21.86Z"/></svg>