<svg xmlns="http://www.w3.org/2000/svg" viewBox="0 0 23.06 20.14"><defs><style>.a{fill:#969696;opacity:0.5;}.b{fill:#ff7e00;}</style></defs><path class="a" d="M13.42,4.79A4.79,4.79,0,1,1,8.63,0,4.79,4.79,0,0,1,13.42,4.79Z"/><path class="a" d="M12.71,11.51H4.55A4.55,4.55,0,0,0,0,16.06v3.36a.72.72,0,0,0,.72.72H16.54a.72.72,0,0,0,.72-.72V16.06A4.55,4.55,0,0,0,12.71,11.51Z"/><path class="b" d="M17.73,9.53a.1.1,0,0,0-.11-.11H14.84a.17.17,0,0,1-.18-.18V7.42a.17.17,0,0,1,.18-.18h2.78c.07,0,.11,0,.11-.12V4.31a.17.17,0,0,1,.18-.18H19.8a.18.18,0,0,1,.19.18V7.12c0,.08,0,.12.11.12h2.77a.17.17,0,0,1,.19.18V9.24a.17.17,0,0,1-.19.18H20.1a.1.1,0,0,0-.11.11v2.81a.18.18,0,0,1-.19.19H17.91a.17.17,0,0,1-.18-.19Z"/></svg>