<svg xmlns="http://www.w3.org/2000/svg" viewBox="0 0 24 21"><defs><style>.a{fill:#969696;opacity:0.5;}.b{fill:#ff7e00;}</style></defs><path class="a" d="M14,5A5,5,0,1,1,9,0,5,5,0,0,1,14,5Z"/><path class="a" d="M13.25,12H4.75A4.75,4.75,0,0,0,0,16.75v3.5A.76.76,0,0,0,.75,21h16.5a.76.76,0,0,0,.75-.75v-3.5A4.75,4.75,0,0,0,13.25,12Z"/><path class="b" d="M23.76,8.45,20.26,5.2a.74.74,0,0,0-.51-.2.75.75,0,0,0-.75.75V8H15a1,1,0,0,0,0,2h4v2.25a.76.76,0,0,0,.75.75.74.74,0,0,0,.51-.2l3.5-3.25a.75.75,0,0,0,0-1.1Z"/></svg>