<?xml version="1.0" encoding="utf-8"?>
<!-- Generator: Adobe Illustrator 25.4.1, SVG Export Plug-In . SVG Version: 6.00 Build 0)  -->
<svg version="1.1" id="Capa_1" xmlns="http://www.w3.org/2000/svg" xmlns:xlink="http://www.w3.org/1999/xlink" x="0px" y="0px"
	 viewBox="0 0 30.4 14.3" style="enable-background:new 0 0 30.4 14.3;" xml:space="preserve">
<style type="text/css">
	.st0{fill:#FFFFFF;}
</style>
<g>
	<path class="st0" d="M1.3,11.7h27.8c0.7,0,1.3,0.6,1.3,1.3l0,0c0,0.7-0.6,1.3-1.3,1.3H1.3C0.6,14.3,0,13.7,0,13l0,0
		C0,12.3,0.6,11.7,1.3,11.7z"/>
	<path class="st0" d="M1.3,5.8h27.8c0.7,0,1.3,0.6,1.3,1.3l0,0c0,0.7-0.6,1.3-1.3,1.3H1.3C0.6,8.5,0,7.9,0,7.1l0,0
		C0,6.4,0.6,5.8,1.3,5.8z"/>
	<path class="st0" d="M1.3,0h27.8c0.7,0,1.3,0.6,1.3,1.3l0,0c0,0.7-0.6,1.3-1.3,1.3H1.3C0.6,2.6,0,2,0,1.3l0,0C0,0.6,0.6,0,1.3,0z"
		/>
</g>
</svg>
