<svg xmlns="http://www.w3.org/2000/svg" xmlns:xlink="http://www.w3.org/1999/xlink" viewBox="0 0 432.32 308.2"><defs><linearGradient id="New_Gradient_Swatch_3" x1="359.63" y1="249.72" x2="392.84" y2="307.23" gradientUnits="userSpaceOnUse"><stop offset="0" stop-color="#5b2a8d"/><stop offset="0.17" stop-color="#4b2786"/><stop offset="0.43" stop-color="#38247d"/><stop offset="0.7" stop-color="#2e2379"/><stop offset="1" stop-color="#2a2277"/></linearGradient><linearGradient id="New_Gradient_Swatch_3-2" x1="36.37" y1="249.72" x2="69.57" y2="307.23" xlink:href="#New_Gradient_Swatch_3"/><linearGradient id="linear-gradient" x1="176.83" y1="-17.65" x2="255.5" y2="118.61" gradientUnits="userSpaceOnUse"><stop offset="0" stop-color="#efcf64"/><stop offset="1" stop-color="#f6a75f"/></linearGradient><linearGradient id="New_Gradient_Swatch_9" x1="361.19" y1="85.89" x2="375.69" y2="111.01" gradientUnits="userSpaceOnUse"><stop offset="0" stop-color="#ec827d"/><stop offset="1" stop-color="#d65778"/></linearGradient><pattern id="_10_lpi_10_" data-name="10 lpi 10%" width="72" height="72" patternUnits="userSpaceOnUse" viewBox="0 0 72 72"><rect width="72" height="72" style="fill:none"/><line x1="71.75" y1="68.4" x2="144.25" y2="68.4" style="fill:none;stroke:#231f20;stroke-width:0.72px"/><line x1="71.75" y1="54" x2="144.25" y2="54" style="fill:none;stroke:#231f20;stroke-width:0.72px"/><line x1="71.75" y1="39.6" x2="144.25" y2="39.6" style="fill:none;stroke:#231f20;stroke-width:0.72px"/><line x1="71.75" y1="25.2" x2="144.25" y2="25.2" style="fill:none;stroke:#231f20;stroke-width:0.72px"/><line x1="71.75" y1="10.8" x2="144.25" y2="10.8" style="fill:none;stroke:#231f20;stroke-width:0.72px"/><line x1="71.75" y1="61.2" x2="144.25" y2="61.2" style="fill:none;stroke:#231f20;stroke-width:0.72px"/><line x1="71.75" y1="46.8" x2="144.25" y2="46.8" style="fill:none;stroke:#231f20;stroke-width:0.72px"/><line x1="71.75" y1="32.4" x2="144.25" y2="32.4" style="fill:none;stroke:#231f20;stroke-width:0.72px"/><line x1="71.75" y1="18" x2="144.25" y2="18" style="fill:none;stroke:#231f20;stroke-width:0.72px"/><line x1="71.75" y1="3.6" x2="144.25" y2="3.6" style="fill:none;stroke:#231f20;stroke-width:0.72px"/><line x1="-0.25" y1="68.4" x2="72.25" y2="68.4" style="fill:none;stroke:#231f20;stroke-width:0.72px"/><line x1="-0.25" y1="54" x2="72.25" y2="54" style="fill:none;stroke:#231f20;stroke-width:0.72px"/><line x1="-0.25" y1="39.6" x2="72.25" y2="39.6" style="fill:none;stroke:#231f20;stroke-width:0.72px"/><line x1="-0.25" y1="25.2" x2="72.25" y2="25.2" style="fill:none;stroke:#231f20;stroke-width:0.72px"/><line x1="-0.25" y1="10.8" x2="72.25" y2="10.8" style="fill:none;stroke:#231f20;stroke-width:0.72px"/><line x1="-0.25" y1="61.2" x2="72.25" y2="61.2" style="fill:none;stroke:#231f20;stroke-width:0.72px"/><line x1="-0.25" y1="46.8" x2="72.25" y2="46.8" style="fill:none;stroke:#231f20;stroke-width:0.72px"/><line x1="-0.25" y1="32.4" x2="72.25" y2="32.4" style="fill:none;stroke:#231f20;stroke-width:0.72px"/><line x1="-0.25" y1="18" x2="72.25" y2="18" style="fill:none;stroke:#231f20;stroke-width:0.72px"/><line x1="-0.25" y1="3.6" x2="72.25" y2="3.6" style="fill:none;stroke:#231f20;stroke-width:0.72px"/><line x1="-72.25" y1="68.4" x2="0.25" y2="68.4" style="fill:none;stroke:#231f20;stroke-width:0.72px"/><line x1="-72.25" y1="54" x2="0.25" y2="54" style="fill:none;stroke:#231f20;stroke-width:0.72px"/><line x1="-72.25" y1="39.6" x2="0.25" y2="39.6" style="fill:none;stroke:#231f20;stroke-width:0.72px"/><line x1="-72.25" y1="25.2" x2="0.25" y2="25.2" style="fill:none;stroke:#231f20;stroke-width:0.72px"/><line x1="-72.25" y1="10.8" x2="0.25" y2="10.8" style="fill:none;stroke:#231f20;stroke-width:0.72px"/><line x1="-72.25" y1="61.2" x2="0.25" y2="61.2" style="fill:none;stroke:#231f20;stroke-width:0.72px"/><line x1="-72.25" y1="46.8" x2="0.25" y2="46.8" style="fill:none;stroke:#231f20;stroke-width:0.72px"/><line x1="-72.25" y1="32.4" x2="0.25" y2="32.4" style="fill:none;stroke:#231f20;stroke-width:0.72px"/><line x1="-72.25" y1="18" x2="0.25" y2="18" style="fill:none;stroke:#231f20;stroke-width:0.72px"/><line x1="-72.25" y1="3.6" x2="0.25" y2="3.6" style="fill:none;stroke:#231f20;stroke-width:0.72px"/></pattern><pattern id="New_Pattern" data-name="New Pattern" width="18.96" height="18.96" patternTransform="translate(-384.93 -271.69) scale(8.59)" patternUnits="userSpaceOnUse" viewBox="0 0 18.96 18.96"><rect width="18.96" height="18.96" style="fill:none"/><g style="mix-blend-mode:screen"><path d="M15.8,0,0,15.8V14.22L14.22,0ZM9.48,0,0,9.48V4.74L4.74,0ZM19,9.48,9.48,19H4.74L19,4.74Zm0,4.74V15.8L15.8,19H14.22Z" style="fill:#1c3f47"/></g></pattern><linearGradient id="New_Gradient_Swatch_9-2" x1="294" y1="85.89" x2="308.5" y2="111.01" xlink:href="#New_Gradient_Swatch_9"/><pattern id="New_Pattern-3" data-name="New Pattern" width="18.96" height="18.96" patternTransform="translate(-443.5 -216.58) scale(8.59)" patternUnits="userSpaceOnUse" viewBox="0 0 18.96 18.96"><rect width="18.96" height="18.96" style="fill:none"/><g style="mix-blend-mode:screen"><path d="M15.8,0,0,15.8V14.22L14.22,0ZM9.48,0,0,9.48V4.74L4.74,0ZM19,9.48,9.48,19H4.74L19,4.74Zm0,4.74V15.8L15.8,19H14.22Z" style="fill:#1c3f47"/></g></pattern><linearGradient id="New_Gradient_Swatch_9-3" x1="226.83" y1="85.89" x2="241.33" y2="111.01" xlink:href="#New_Gradient_Swatch_9"/><linearGradient id="New_Gradient_Swatch_9-4" x1="159.66" y1="85.89" x2="174.15" y2="111.01" xlink:href="#New_Gradient_Swatch_9"/><pattern id="New_Pattern-5" data-name="New Pattern" width="18.96" height="18.96" patternTransform="translate(-339.29 -271.69) scale(8.59)" patternUnits="userSpaceOnUse" viewBox="0 0 18.96 18.96"><rect width="18.96" height="18.96" style="fill:none"/><g style="mix-blend-mode:screen"><path d="M15.8,0,0,15.8V14.22L14.22,0ZM9.48,0,0,9.48V4.74L4.74,0ZM19,9.48,9.48,19H4.74L19,4.74Zm0,4.74V15.8L15.8,19H14.22Z" style="fill:#1c3f47"/></g></pattern><linearGradient id="New_Gradient_Swatch_9-5" x1="92.48" y1="85.89" x2="106.98" y2="111.01" xlink:href="#New_Gradient_Swatch_9"/><linearGradient id="New_Gradient_Swatch_3-3" x1="132.92" y1="288.37" x2="136.78" y2="295.05" xlink:href="#New_Gradient_Swatch_3"/><linearGradient id="New_Gradient_Swatch_3-4" x1="153.64" y1="290.57" x2="157.55" y2="297.35" xlink:href="#New_Gradient_Swatch_3"/><linearGradient id="New_Gradient_Swatch_9-6" x1="142.44" y1="174.13" x2="163.91" y2="211.32" xlink:href="#New_Gradient_Swatch_9"/><linearGradient id="New_Gradient_Swatch_3-5" x1="145.64" y1="153.85" x2="160.73" y2="180" xlink:href="#New_Gradient_Swatch_3"/><linearGradient id="New_Gradient_Swatch_3-6" x1="134.37" y1="205.17" x2="158.79" y2="288.76" xlink:href="#New_Gradient_Swatch_3"/><linearGradient id="New_Gradient_Swatch_3-7" x1="146.82" y1="201.54" x2="171.23" y2="285.12" xlink:href="#New_Gradient_Swatch_3"/></defs><g style="isolation:isolate"><g id="OBJECTS"><rect x="28.8" y="198.91" width="371.59" height="102.98" rx="38.72" style="fill:#dce8ef"/><rect x="28.8" y="50.13" width="371.59" height="102.98" rx="38.72" style="fill:#dce8ef"/><rect x="61.33" width="265.05" height="73.46" rx="27.62" style="fill:#dce8ef"/><rect x="41.04" y="133" width="371.59" height="77.44" rx="38.72" style="fill:#dce8ef"/><path d="M414.39,294.79c7.87-4.81,11.4-12.09,9.67-15.72-1.87-3.94-11.11-6.06-21-.81.33-1.49,5.15-24.19,0-26.2-4.12-1.6-12.62,10.89-14.51,13.71q2.85-24.6-1.2-25.8-3-.87-9.68,10.88c-1.62-5.64-3.23-8.47-4.83-8.46q-4.71,0-9.27,32.65c-1.5-7.94-4.68-22.13-8.87-22.17-5.23-.05-9.32,22-10.48,28.62q-10.2-10.75-12.49-9.27-2.91,1.88,6.85,23.37Z" style="fill:url(#New_Gradient_Swatch_3)"/><path d="M91.12,294.79c7.87-4.81,11.4-12.09,9.67-15.72-1.87-3.94-11.1-6.06-21-.81.32-1.49,5.14-24.19,0-26.2-4.13-1.6-12.63,10.89-14.51,13.71q2.83-24.6-1.21-25.8-3-.87-9.67,10.88c-1.63-5.64-3.24-8.47-4.84-8.46q-4.71,0-9.27,32.65c-1.5-7.94-4.68-22.13-8.87-22.17-5.23-.05-9.32,22-10.48,28.62Q10.81,270.74,8.5,272.22q-2.91,1.88,6.85,23.37Z" style="fill:url(#New_Gradient_Swatch_3-2)"/><polygon points="270.1 117.89 270.1 125.38 266.55 125.38 165.78 125.38 162.22 125.38 162.22 117.89 270.1 117.89" style="fill:#878cf0"/><polygon points="377.8 271.39 377.8 295.59 266.55 295.59 266.55 271.39 371.48 271.39 377.8 271.39" style="fill:#878cf0"/><polygon points="165.78 271.39 165.78 295.59 54.53 295.59 54.53 271.39 60.84 271.39 165.78 271.39" style="fill:#878cf0"/><polygon points="377.8 271.39 377.8 273.52 266.55 273.52 266.55 271.39 371.48 271.39 377.8 271.39" style="fill:#b1b2f3"/><polygon points="165.78 271.39 165.78 273.52 54.53 273.52 54.53 271.39 60.84 271.39 165.78 271.39" style="fill:#b1b2f3"/><polygon points="153.45 117.89 153.45 125.38 148.99 125.38 74.91 125.38 70.45 125.38 70.45 117.89 153.45 117.89" style="fill:#878cf0"/><polygon points="361.88 117.89 361.88 125.38 357.41 125.38 283.34 125.38 278.87 125.38 278.87 117.89 361.88 117.89" style="fill:#878cf0"/><polygon points="266.55 271.39 266.55 295.59 258.02 295.59 258.02 132.92 174.3 132.92 174.3 295.59 165.78 295.59 165.78 271.39 165.78 125.38 266.55 125.38 266.55 271.39" style="fill:#b1b2f3"/><polygon points="377.8 27.35 377.8 36.73 371.48 36.73 60.84 36.73 54.53 36.73 54.53 27.35 377.8 27.35" style="fill:#b1b2f3"/><rect x="60.84" y="36.73" width="310.64" height="11" style="fill:#606bf1"/><rect x="60.84" y="36.73" width="310.64" height="3.2" style="fill:#d1d3d4;mix-blend-mode:multiply"/><polygon points="371.48 53.23 371.48 64.22 340.42 64.22 309.36 64.22 278.29 64.22 247.23 64.22 216.16 64.22 185.1 64.22 154.03 64.22 122.97 64.22 91.91 64.22 60.84 64.22 60.84 53.23 371.48 53.23" style="fill:#606bf1"/><rect x="63.58" y="47.73" width="305.17" height="5.5" style="fill:url(#linear-gradient)"/><rect x="63.58" y="47.73" width="305.17" height="1.62" style="fill:#d1d3d4;mix-blend-mode:multiply"/><polygon points="340.42 64.22 350.52 92.05 316.92 92.05 309.36 64.22 340.42 64.22" style="fill:#f0f5f7"/><polygon points="91.91 64.22 81.8 92.05 48.22 92.05 60.84 64.22 91.91 64.22" style="fill:#f0f5f7"/><polygon points="154.03 64.22 148.99 92.05 115.4 92.05 122.97 64.22 154.03 64.22" style="fill:#f0f5f7"/><polygon points="216.16 64.22 216.16 92.05 182.57 92.05 185.1 64.22 216.16 64.22" style="fill:#f0f5f7"/><polygon points="278.29 64.22 283.34 92.05 249.75 92.05 247.23 64.22 278.29 64.22" style="fill:#f0f5f7"/><path d="M81.8,92.05v4.4A16.78,16.78,0,0,1,65,113.24a17,17,0,0,1-4.07-.49,16.82,16.82,0,0,1-12.73-16.3v-4.4Z" style="fill:#c3d3dd"/><path d="M149,92.05v4.4a16.8,16.8,0,0,1-33.59,0v-4.4Z" style="fill:#c3d3dd"/><path d="M216.16,92.05v4.4a16.79,16.79,0,1,1-33.58,0v-4.4Z" style="fill:#c3d3dd"/><path d="M283.34,92.05v4.4a16.8,16.8,0,0,1-33.59,0v-4.4Z" style="fill:#c3d3dd"/><path d="M350.52,92.05v4.4a16.8,16.8,0,0,1-33.6,0v-4.4Z" style="fill:#c3d3dd"/><polygon points="371.48 64.22 384.11 92.05 350.52 92.05 340.42 64.22 371.48 64.22" style="fill:#f49898"/><polygon points="309.36 64.22 316.92 92.05 283.34 92.05 278.29 64.22 309.36 64.22" style="fill:#f49898"/><polygon points="247.23 64.22 249.75 92.05 216.16 92.05 216.16 64.22 247.23 64.22" style="fill:#f49898"/><polygon points="185.1 64.22 182.57 92.05 148.99 92.05 154.03 64.22 185.1 64.22" style="fill:#f49898"/><path d="M384.11,92.05v4.4a16.82,16.82,0,0,1-12.73,16.3,17.05,17.05,0,0,1-4.07.49,16.78,16.78,0,0,1-16.79-16.79v-4.4Z" style="fill:url(#New_Gradient_Swatch_9)"/><path d="M371.48,113.24V271.39H266.55v-146h3.55v-7.49H162.22v7.49h3.56v146H60.84V113.24l.11-.49a17,17,0,0,0,4.07.49A16.78,16.78,0,0,0,81.8,96.45a16.8,16.8,0,0,0,33.6,0,16.8,16.8,0,0,0,33.59,0,16.8,16.8,0,0,0,33.59,0,16.79,16.79,0,1,0,33.58,0,16.8,16.8,0,0,0,33.59,0,16.8,16.8,0,0,0,33.59,0,16.79,16.79,0,0,0,33.58,0,16.8,16.8,0,0,0,33.6,0,16.78,16.78,0,0,0,16.79,16.79,17.05,17.05,0,0,0,4.07-.49Zm-9.6,120.1v-7.49h-4.47V125.38h4.47v-7.49h-83v7.49h4.47V225.85h-4.47v7.49Zm-208.43,0v-7.49H149V125.38h4.46v-7.49h-83v7.49h4.46V225.85H70.45v7.49Z" style="fill:#606bf1"/><g style="mix-blend-mode:difference;opacity:0.30000000000000004"><path d="M371.48,113.24V271.39H266.55v-146h3.55v-7.49H162.22v7.49h3.56v146H60.84V113.24l.11-.49a17,17,0,0,0,4.07.49A16.78,16.78,0,0,0,81.8,96.45a16.8,16.8,0,0,0,33.6,0,16.8,16.8,0,0,0,33.59,0,16.8,16.8,0,0,0,33.59,0,16.79,16.79,0,1,0,33.58,0,16.8,16.8,0,0,0,33.59,0,16.8,16.8,0,0,0,33.59,0,16.79,16.79,0,0,0,33.58,0,16.8,16.8,0,0,0,33.6,0,16.78,16.78,0,0,0,16.79,16.79,17.05,17.05,0,0,0,4.07-.49Zm-9.6,120.1v-7.49h-4.47V125.38h4.47v-7.49h-83v7.49h4.47V225.85h-4.47v7.49Zm-208.43,0v-7.49H149V125.38h4.46v-7.49h-83v7.49h4.46V225.85H70.45v7.49Z" style="fill:url(#_10_lpi_10_)"/></g><polygon points="153.45 229.6 153.45 237.09 70.45 237.09 70.45 229.6 74.91 229.6 148.99 229.6 153.45 229.6" style="fill:#d1d3d4;mix-blend-mode:multiply"/><polygon points="361.88 229.6 361.88 237.09 278.87 237.09 278.87 229.6 283.34 229.6 357.41 229.6 361.88 229.6" style="fill:#d1d3d4;mix-blend-mode:multiply"/><polygon points="153.45 225.85 153.45 233.34 70.45 233.34 70.45 225.85 74.91 225.85 148.99 225.85 153.45 225.85" style="fill:#878cf0"/><polygon points="361.88 225.85 361.88 233.34 278.87 233.34 278.87 225.85 283.34 225.85 357.41 225.85 361.88 225.85" style="fill:#878cf0"/><path d="M357.41,125.38V225.85H283.34V125.38Zm-7.51,93V132.9h-59v85.44Z" style="fill:#b1b2f3"/><rect x="290.35" y="132.4" width="60.05" height="86.44" style="fill:#bee1f4"/><rect x="290.35" y="132.4" width="60.05" height="86.44" style="fill:url(#New_Pattern)"/><path d="M349.9,132.9v85.44h-59V132.9h59m1-1h-61v87.44h61V131.9Z" style="fill:#93b9c6"/><path d="M316.92,92.05v4.4a16.79,16.79,0,0,1-33.58,0v-4.4Z" style="fill:url(#New_Gradient_Swatch_9-2)"/><rect x="173.8" y="132.42" width="84.73" height="163.67" style="fill:#bee1f4"/><rect x="173.8" y="132.42" width="84.73" height="163.67" style="fill:url(#New_Pattern-3)"/><path d="M258,132.92V295.59H174.3V132.92H258m1-1H173.3V296.59H259V131.92Z" style="fill:#93b9c6"/><path d="M249.75,92.05v4.4a16.8,16.8,0,0,1-33.59,0v-4.4Z" style="fill:url(#New_Gradient_Swatch_9-3)"/><path d="M182.58,92.05v4.4a16.8,16.8,0,0,1-33.59,0v-4.4Z" style="fill:url(#New_Gradient_Swatch_9-4)"/><path d="M149,125.38V225.85H74.91V125.38Zm-7.52,93V132.9h-59v85.44Z" style="fill:#b1b2f3"/><rect x="81.93" y="132.4" width="60.05" height="86.44" style="fill:#bee1f4"/><rect x="81.93" y="132.4" width="60.05" height="86.44" style="fill:url(#New_Pattern-5)"/><path d="M141.47,132.9v85.44h-59V132.9h59m1-1h-61v87.44h61V131.9Z" style="fill:#93b9c6"/><polygon points="122.97 64.22 115.4 92.05 81.8 92.05 91.91 64.22 122.97 64.22" style="fill:#f49898"/><path d="M115.4,92.05v4.4a16.8,16.8,0,0,1-33.6,0v-4.4Z" style="fill:url(#New_Gradient_Swatch_9-5)"/><path d="M186.81,200.35a2.49,2.49,0,1,1-2.49-2.49A2.49,2.49,0,0,1,186.81,200.35Z" style="fill:#93b9c6"/><circle cx="184.32" cy="228.34" r="2.49" style="fill:#93b9c6"/><path d="M184.32,229.84h0a1.74,1.74,0,0,1-1.74-1.75V200.41a1.74,1.74,0,0,1,1.74-1.74h0a1.74,1.74,0,0,1,1.75,1.74v27.68A1.75,1.75,0,0,1,184.32,229.84Z" style="fill:#dce8ef"/><rect x="184.48" y="199.89" width="1" height="16.91" rx="0.41" style="fill:#f9fbfc"/><polygon points="432.32 295.59 432.32 308.2 0 308.2 0 295.59 54.53 295.59 165.78 295.59 174.3 295.59 258.02 295.59 266.55 295.59 377.8 295.59 432.32 295.59" style="fill:#c3d3dd"/><g style="mix-blend-mode:multiply"><polygon points="337.61 150.67 337.61 184.5 322.17 184.5 322.17 218.34 349.9 218.34 349.9 184.5 349.9 150.67 337.61 150.67" style="fill:#dce8ef"/></g><g style="mix-blend-mode:multiply"><rect x="294.09" y="203.93" width="14.41" height="14.41" style="fill:#dce8ef"/></g><g style="mix-blend-mode:multiply"><polygon points="122.23 186.21 122.23 172 94.71 172 94.71 186.21 88.3 186.21 88.3 218.34 128.65 218.34 128.65 186.21 122.23 186.21" style="fill:#dce8ef"/></g><path d="M150.22,254.69c3.39-.28,3.63-19.27,3.11-27.33s-2.44-14.32-6.58-14-5,6.83-4.17,14.87S146.82,255,150.22,254.69Z" style="fill:#ffc8af"/><path d="M134,289.75c2.8,1.13,13.09-23.45,15.33-29s4.19-11.6,1-12.87-5.94,4.43-8.19,10S131.23,288.62,134,289.75Z" style="fill:#ffc8af"/><path d="M132.28,292.71c1.83,1.27,5.63,2.08,6,1.44s-.25-2.44-.77-3.74v0l-.42-1-.23-.5s6.09-24,5-24.33-9.36,23.51-9.36,23.51,0,.15-.11.37l-.09.3-.62,2.07C131.53,291.08,130.93,291.81,132.28,292.71Z" style="fill:#ffc8af"/><path d="M132.28,292.71c1.83,1.27,5.63,2.08,6,1.44s-.25-2.44-.77-3.74v0l-.42-1c-.12.24-.29.6-.43.92-.24.55-.55.55-1.67-.18a21.37,21.37,0,0,0-2.73-1.39s-.72,1.52-.92,2.05C131.21,291.05,130.93,291.81,132.28,292.71Z" style="fill:url(#New_Gradient_Swatch_3-3)"/><path d="M133.94,202.81c2.27.95,9-11.71,11.4-17.29s3.37-10.41.6-11.56-5.54,2.91-7.77,8.58S131.68,201.87,133.94,202.81Z" style="fill:#ffc8af"/><path d="M146.73,226.18c2-.91-4.15-15.71-6-19.82s-4.18-8.31-6.39-7.29-.54,5.49,1.35,9.6S144.75,227.08,146.73,226.18Z" style="fill:#ffc8af"/><path d="M145.1,222.36c-2.41.9-.35,5,.4,6.33,1.23,2.22,4.66,3.32,5.53,2.86s-2.29-5.28-2.18-5.56,1.55,2.47,2.32,1.95-1.15-3.77-2.4-4.77S146.61,221.8,145.1,222.36Z" style="fill:#ffc8af"/><path d="M151.33,290.63c-.21.81-.62,1.72-.18,2.53a2.27,2.27,0,0,0,1.59.94,18,18,0,0,0,2.64.37,9.45,9.45,0,0,0,1.07.09c.3,0,.59-.06.89-.07.58,0,1.17,0,1.75-.06.06,0,.45,0,.5-.07s-.05-.19-.09-.23c-.25-.22-.58-.32-.84-.53s-.56-.5-.85-.73a8.44,8.44,0,0,0-1.91-1.15c-.13-.06,3.9-25.27,2.7-25.53S151.33,290.61,151.33,290.63Z" style="fill:#ffc8af"/><path d="M166.41,255.7c3.32-.73,1.08-19.58-.49-27.51s-4.29-13.87-8.35-13-4.06,7.42-2.18,15.28S163.08,256.43,166.41,255.7Z" style="fill:#ffc8af"/><path d="M152.75,291.64c2.88.9,11.65-24.3,13.45-30s3.24-11.89,0-12.91-5.56,4.89-7.36,10.61S149.87,290.74,152.75,291.64Z" style="fill:#ffc8af"/><path d="M150.85,292.18V295a.52.52,0,0,0,.52.52h9.12A.83.83,0,0,0,161,294a33.12,33.12,0,0,0-5-2.73c-.37.32-.93,1.34-1.59,1.46A18.53,18.53,0,0,1,150.85,292.18Z" style="fill:url(#New_Gradient_Swatch_3-4)"/><path d="M190.27,184.68c-1.42-1.62-13.75,8.4-17.12,11.36s-6.7,6.32-5.11,8.14,5.37-1.05,8.74-4S191.69,186.3,190.27,184.68Z" style="fill:#ffc8af"/><path d="M142.5,221l21.12-.87.93-36.14-1.46-9.08-9.76-3.59-6.28,1.2a7.37,7.37,0,0,0-6,7.5l2.29,25.58Z" style="fill:#ffc8af"/><path d="M151,166.82v7.26s1.53.92,5.13.92c1.93,0,2.37-.92,2.37-.92V171.4Z" style="fill:#ffc8af"/><path d="M150.13,161.4c0,.26,0,.51.05.75,0,.08,0,.17,0,.26-.18,4.31,2.59,8.93,6.75,9.56h.24c.89.11,4.12.37,5.3-.92a11,11,0,0,0,2.61-6.24,24.22,24.22,0,0,0-.35-3.14c0-.6.32-2.49.33-3.31,0-3.84-2.56-7.66-7.16-7.66C151,150.72,149.94,156.77,150.13,161.4Z" style="fill:#ffc8af"/><path d="M163.75,174.62c1.47,1.36,2.61,3.74,2.89,8.62.08,1.36,1.08,5.1-.74,9.66-3.22,8-1.25,18-1.25,18l-21.89.81s-.46-14.67-1.21-19.35c-2.25-14.13,0-18.67,4-19.78C151.4,170.92,162.28,173.26,163.75,174.62Z" style="fill:url(#New_Gradient_Swatch_9-6)"/><path d="M169.17,204.71c2.35-.61.09-14.62-1.31-20.5s-3.56-10.25-6.43-9.51-2.65,5.62-1,11.44S166.81,205.31,169.17,204.71Z" style="fill:#ffc8af"/><path d="M194.65,179.78c-.57-.63-3.64,2.39-4.63,3.17a.89.89,0,0,1-.3.19s0-.06,0-.14c.16-.48,1.38-2.18.79-2.71s-3.07,1.71-3.89,3.18c-.05.08-.11.17-.15.25-.66,1.44-.8,2.4.09,3.72,1.43,2.12,4.87-.83,6-1.87a7.85,7.85,0,0,0,2-3.38A3.06,3.06,0,0,0,194.65,179.78Z" style="fill:#ffc8af"/><path d="M165.74,156.13v0a4.48,4.48,0,0,1-.35,3.4c-.58.86-1.68,1.45-1.74,2.58,0,.51.2,1,.17,1.54a5,5,0,0,1-.62,2c-.58,1.1-1.3,2.34-.9,3.52.28.84,1.08,1.47,1.16,2.35.12,1.3-1.37,2.31-1.28,3.61,0,.71.56,1.31.64,2a2.88,2.88,0,0,1-1.44,2.44c-2.49,1.79-5.66,1.5-8.58,1.43q-3.41-.07-6.79-.48a16.3,16.3,0,0,1-3.85-.81c-1.11-.43-2.29-1.36-2.11-2.55a5.82,5.82,0,0,1,1-1.86,3.49,3.49,0,0,0,.26-2.94,4,4,0,0,1-.31-.92,2.39,2.39,0,0,1,1.12-1.86,2.92,2.92,0,0,0,1.3-1.77c.07-.79-.56-1.52-.5-2.31a2.78,2.78,0,0,1,1.18-1.77l1.21-1.05a1.87,1.87,0,0,0,.51-.58c.37-.77-.39-1.62-.38-2.47,0-1.52,2.28-2.1,2.63-3.58a5.29,5.29,0,0,0,0-1.32c0-3,3.66-5,6.3-4.67.3,0,1.18-.57,1.52-.67a6.38,6.38,0,0,1,1.79-.29,7.56,7.56,0,0,1,6.12,2.81A10,10,0,0,1,165.74,156.13Z" style="fill:url(#New_Gradient_Swatch_3-5)"/><path d="M142.54,206c.19,4.6-3.28,10.62-3.81,15.19-1.08,9.17,5.26,26.33,5.26,27.44s-5.93,16-8.23,25.07c0,0,1.29,1.86,7.5,3,0,0,9.54-20.74,10.42-25.42s-.2-44.41-.2-44.41Z" style="fill:url(#New_Gradient_Swatch_3-6)"/><path d="M152.17,206.73h12a223.56,223.56,0,0,1,4.53,25.55c1.78,14.68,1.21,19,.89,21.38s-8.42,24.45-8.42,24.45a14.08,14.08,0,0,1-8.34-1.93s2.72-12.59,5.06-18.4a58.79,58.79,0,0,0,2.6-7.1s-6.74-14.37-8.42-24.62A60.61,60.61,0,0,1,152.17,206.73Z" style="fill:url(#New_Gradient_Swatch_3-7)"/></g></g></svg>